<svg xmlns="http://www.w3.org/2000/svg" viewBox="0 0 512 512">
  <path d="M256 0c53 0 96 43 96 96v4c0 15-13 28-28 28H189c-16 0-29-13-29-28v-4c0-53 43-96 96-96zM41 105c13-12 33-12 46 0l64 64 2 3c14-8 30-12 47-12h112c17 0 33 4 48 11l2-2 64-64a32 32 0 0 1 45 46l-64 64-2 2c6 12 10 25 11 39h64a32 32 0 1 1 0 64h-64c0 25-5 48-15 69l6 5 64 64a32 32 0 0 1-46 45l-63-63c-24 22-55 36-90 39V240c0-9-7-16-16-16s-16 7-16 16v239c-34-3-66-18-90-39l-63 63a32 32 0 0 1-46-46l64-64 6-4c-9-21-15-44-15-69H32a32 32 0 1 1 0-64h64c1-14 5-27 11-39l-2-2-64-64a32 32 0 0 1 0-46z"/>
</svg>