<svg xmlns="http://www.w3.org/2000/svg" aria-hidden="true" viewBox="0 0 512 512">
  <path d="M322 268a112 112 0 0 0 142-104l-25 25a64 64 0 0 1-46 19h-25c-35 0-64-29-64-64v-25c0-17 7-34 19-46l25-25a112 112 0 0 0-104 142c5 16 0 34-12 46L57 411c-6 5-9 13-9 22a31 31 0 0 0 53 22l175-175c12-12 30-17 46-12zM425 39l-68 68c-3 3-5 7-5 12v25c0 9 7 16 16 16h25c5 0 9-2 12-5l68-68c7-7 19-5 23 4a160 160 0 0 1-187 224L136 488A79 79 0 1 1 23 377l175-175A160 160 0 0 1 422 15c9 5 10 17 3 24zM88 408a16 16 0 1 1 0 32 16 16 0 1 1 0-32z"/>
</svg>