<svg xmlns="http://www.w3.org/2000/svg" fill="#f87171" transform="rotate(35)" aria-hidden="true" viewBox="0 0 576 512">
  <path d="M288 0c13 0 24 11 24 24v25c124 9 226 93 256 204l1 5a262 262 0 0 1 5 28c2 16-17 24-28 13-2-3-5-6-9-8l-11-7v-1h-1c-14-7-30-11-45-11-30 0-56 17-70 41l-1 3a71 71 0 0 0-7 20c-2 9-9 16-18 16s-16-7-18-16l-1-7-6-13-1-3a80 80 0 0 0-140 0l-1 3a71 71 0 0 0-7 20c-2 9-9 16-18 16s-16-7-18-16l-1-7-6-13-1-3a80 80 0 0 0-70-41c-15 0-31 4-45 11l-1 1a77 77 0 0 0-20 15c-11 11-30 3-28-13a343 343 0 0 1 5-28l2-5A284 284 0 0 1 264 49V24c0-13 11-24 24-24zm96 267a127 127 0 0 1 122-40C469 150 386 96 288 96S107 150 70 227a128 128 0 0 1 122 41 127 127 0 0 1 192-1zm-96 37c9 0 17 2 24 6v128a73 73 0 0 1-139 33l-2-4a24 24 0 0 1 42-22l3 5a25 25 0 0 0 48-11V310c7-4 15-6 24-6z"/>
</svg>